<?xml version="1.0" encoding="UTF-8"?>
<svg width="62px" height="74px" viewBox="0 0 62 74" version="1.1" xmlns="http://www.w3.org/2000/svg" xmlns:xlink="http://www.w3.org/1999/xlink">
    <title>arrow-up</title>
    <g id="arrow-up" stroke="none" stroke-width="1" fill="none" fill-rule="evenodd">
        <path d="M30.9920189,73.386261 C32.5336653,73.386261 33.7921339,72.8911133 34.7674248,71.9008179 C35.7427158,70.9105225 36.2303612,69.6191203 36.2303612,68.0266113 L36.2303612,24.230072 L35.6345055,10.3789063 L32.5232384,12.1542664 L45.1712487,26.5684814 L52.6945946,33.9895935 C53.1543928,34.4493917 53.695444,34.8284454 54.3177483,35.1267548 C54.9400526,35.4250641 55.6301313,35.5742188 56.3879845,35.5742188 C57.8141727,35.5742188 59.0013065,35.0942027 59.9493859,34.1341705 C60.8974653,33.1741384 61.371505,31.9662781 61.371505,30.5105896 C61.371505,29.1184794 60.8305809,27.859375 59.7487328,26.7332764 L34.8494408,1.80041504 C33.797093,0.703308105 32.5112857,0.154754639 30.9920189,0.154754639 C29.4732608,0.154754639 28.1874535,0.703308105 27.1345971,1.80041504 L2.2513268,26.7332764 C1.16947865,27.859375 0.628554583,29.1184794 0.628554583,30.5105896 C0.628554583,31.9662781 1.1025943,33.1741384 2.05067372,34.1341705 C2.99875315,35.0942027 4.18588694,35.5742188 5.61207509,35.5742188 C6.36992828,35.5742188 7.06255015,35.4250641 7.68994069,35.1267548 C8.31733123,34.8284454 8.85583933,34.4493917 9.30546498,33.9895935 L16.8135521,26.5684814 L29.4279931,12.1542664 L26.3502953,10.3789063 L25.7536767,24.230072 L25.7536767,68.0266113 C25.7536767,69.6191203 26.2414493,70.9105225 27.2169945,71.9008179 C28.1925398,72.8911133 29.4508812,73.386261 30.9920189,73.386261 Z" id="Path" fill="#FFFFFF" fill-rule="nonzero" transform="translate(31, 36.7705) scale(1, -1) translate(-31, -36.7705)"></path>
    </g>
</svg>