<?xml version="1.0" encoding="UTF-8"?>
<svg width="500px" height="500px" viewBox="0 0 500 500" version="1.1" xmlns="http://www.w3.org/2000/svg" xmlns:xlink="http://www.w3.org/1999/xlink">
    <title>clock-face-big-retro-dark</title>
    <defs>
        <linearGradient x1="50%" y1="0%" x2="50%" y2="100%" id="linearGradient-1">
            <stop stop-color="#2C2C2C" offset="0%"></stop>
            <stop stop-color="#1C1C1C" offset="100%"></stop>
        </linearGradient>
        <circle id="path-2" cx="250" cy="250" r="223"></circle>
        <filter x="-2.1%" y="-1.5%" width="104.3%" height="104.3%" filterUnits="objectBoundingBox" id="filter-3">
            <feMorphology radius="2" operator="dilate" in="SourceAlpha" result="shadowSpreadOuter1"></feMorphology>
            <feOffset dx="0" dy="3" in="shadowSpreadOuter1" result="shadowOffsetOuter1"></feOffset>
            <feGaussianBlur stdDeviation="2" in="shadowOffsetOuter1" result="shadowBlurOuter1"></feGaussianBlur>
            <feComposite in="shadowBlurOuter1" in2="SourceAlpha" operator="out" result="shadowBlurOuter1"></feComposite>
            <feColorMatrix values="0 0 0 0 1   0 0 0 0 1   0 0 0 0 1  0 0 0 0.1 0" type="matrix" in="shadowBlurOuter1"></feColorMatrix>
        </filter>
        <linearGradient x1="50%" y1="5.95437642e-17%" x2="75.5224142%" y2="100%" id="linearGradient-4">
            <stop stop-color="#FFFFFF" offset="0%"></stop>
            <stop stop-color="#FFFFFF" stop-opacity="0.0259495017" offset="74.7445769%"></stop>
            <stop stop-color="#FFFFFF" stop-opacity="0" offset="99.9016608%"></stop>
        </linearGradient>
    </defs>
    <g id="clock-face-big-retro-dark" stroke="none" stroke-width="1" fill="none" fill-rule="evenodd">
        <path d="M408.648419,1.00098273 C439.742612,1.06583225 451.177611,4.33910549 462.694846,10.4985905 C474.251334,16.6790675 483.320932,25.7486663 489.501409,37.3051535 C495.723112,48.9387249 499,60.4883898 499,92.2998672 L499,407.700133 C499,439.51161 495.723112,451.061275 489.501409,462.694846 C483.320932,474.251334 474.251334,483.320932 462.694846,489.501409 C451.061275,495.723112 439.51161,499 407.700133,499 L92.2998672,499 C60.4883898,499 48.9387249,495.723112 37.3051535,489.501409 C25.7486663,483.320932 16.6790675,474.251334 10.4985905,462.694846 C4.27688847,451.061275 1,439.51161 1,407.700133 L1.00098273,91.3515811 C1.06583225,60.2573881 4.33910549,48.8223892 10.4985905,37.3051535 C16.6790675,25.7486663 25.7486663,16.6790675 37.3051535,10.4985905 C48.9387249,4.27688847 60.4883898,1 92.2998672,1 Z" id="Rectangle" stroke-opacity="0.1" stroke="#FFFFFF" stroke-width="2" fill="url(#linearGradient-1)"></path>
        <g id="Oval">
            <use fill="black" fill-opacity="1" filter="url(#filter-3)" xlink:href="#path-2"></use>
            <use stroke="#000000" stroke-width="4" fill="#121212" fill-rule="evenodd" xlink:href="#path-2"></use>
        </g>
        <path d="M249,437 C249,436.447715 249.447715,436 250,436 C250.552285,436 251,436.447715 251,437 L251,453 C251,453.512836 250.61396,453.935507 250.116621,453.993272 L250,454 C249.447715,454 249,453.552285 249,453 L249,437 Z M271.377572,443.827241 L272.2138,451.783416 C272.271529,452.332676 271.873066,452.824737 271.323807,452.882467 C270.774547,452.940196 270.282486,452.541732 270.224756,451.992473 L269.388528,444.036298 C269.330799,443.487039 269.729263,442.994977 270.278522,442.937248 C270.827781,442.879518 271.319843,443.277982 271.377572,443.827241 Z M229.721478,442.937248 C230.270737,442.994977 230.669201,443.487039 230.611472,444.036298 L229.775244,451.992473 C229.717514,452.541732 229.225453,452.940196 228.676193,452.882467 C228.126934,452.824737 227.728471,452.332676 227.7862,451.783416 L228.622428,443.827241 C228.680157,443.277982 229.172219,442.879518 229.721478,442.937248 Z M291.520927,440.53087 L293.184221,448.356051 C293.299047,448.896267 292.954201,449.427284 292.413985,449.542111 C291.873769,449.656937 291.342752,449.312091 291.227926,448.771875 L289.564632,440.946694 C289.449806,440.406478 289.794652,439.875461 290.334868,439.760635 C290.875084,439.645808 291.406101,439.990654 291.520927,440.53087 Z M209.665132,439.760635 C210.205348,439.875461 210.550194,440.406478 210.435368,440.946694 L208.772074,448.771875 C208.657248,449.312091 208.126231,449.656937 207.586015,449.542111 C207.045799,449.427284 206.700953,448.896267 206.815779,448.356051 L208.479073,440.53087 C208.593899,439.990654 209.124916,439.645808 209.665132,439.760635 Z M311.20937,435.147004 L313.681506,442.755456 C313.852172,443.28071 313.564721,443.844864 313.039467,444.015529 C312.514213,444.186195 311.950059,443.898744 311.779393,443.37349 L309.307257,435.765038 C309.136592,435.239784 309.424043,434.67563 309.949297,434.504964 C310.474551,434.334299 311.038705,434.62175 311.20937,435.147004 Z M190.050703,434.504964 C190.575957,434.67563 190.863408,435.239784 190.692743,435.765038 L188.220607,443.37349 C188.049941,443.898744 187.485787,444.186195 186.960533,444.015529 C186.435279,443.844864 186.147828,443.28071 186.318494,442.755456 L188.79063,435.147004 C188.961295,434.62175 189.525449,434.334299 190.050703,434.504964 Z M171.093091,427.227819 C171.597628,427.452453 171.824535,428.043564 171.5999,428.548101 L168.346007,435.856465 C168.121372,436.361002 167.530262,436.587908 167.025725,436.363273 C166.521188,436.138639 166.294282,435.547528 166.518916,435.042991 L169.772809,427.734628 C169.997444,427.23009 170.588554,427.003184 171.093091,427.227819 Z M330.227191,427.734628 L333.481084,435.042991 C333.705718,435.547528 333.478812,436.138639 332.974275,436.363273 C332.469738,436.587908 331.878628,436.361002 331.653993,435.856465 L328.4001,428.548101 C328.175465,428.043564 328.402372,427.452453 328.906909,427.227819 C329.411446,427.003184 330.002556,427.23009 330.227191,427.734628 Z M157,411.080725 C157.478293,411.356867 157.642168,411.968458 157.366025,412.446751 L149.366025,426.303157 C149.20823,426.576467 148.9409,426.74711 148.651499,426.791651 L148.54211,426.802397 C148.35864,426.810302 148.170819,426.767805 148,426.669182 C147.521707,426.39304 147.357832,425.78145 147.633975,425.303157 L151.633975,418.374954 L151.635,418.371 L155.633975,411.446751 C155.910117,410.968458 156.521707,410.804583 157,411.080725 Z M344.366025,411.446751 L348.36419,418.371789 L348.567,418.723 L352.366025,425.303157 C352.642168,425.78145 352.478293,426.39304 352,426.669182 C351.863345,426.74808 351.715808,426.791058 351.568323,426.801046 L351.45789,426.802397 C351.127644,426.788167 350.811495,426.610631 350.633975,426.303157 L350.241,425.624 L342.633975,412.446751 C342.357832,411.968458 342.521707,411.356867 343,411.080725 C343.478293,410.804583 344.089883,410.968458 344.366025,411.446751 Z M135.969661,406.949297 C136.416469,407.273922 136.515518,407.899291 136.190893,408.346099 L131.488611,414.818235 C131.163986,415.265043 130.538616,415.364092 130.091809,415.039467 C129.645001,414.714842 129.545952,414.089472 129.870577,413.642665 L134.572859,407.170529 C134.897484,406.723721 135.522853,406.624672 135.969661,406.949297 Z M365.427141,407.170529 L370.129423,413.642665 C370.454048,414.089472 370.354999,414.714842 369.908191,415.039467 C369.461384,415.364092 368.836014,415.265043 368.511389,414.818235 L363.809107,408.346099 C363.484482,407.899291 363.583531,407.273922 364.030339,406.949297 C364.477147,406.624672 365.102516,406.723721 365.427141,407.170529 Z M120.188662,394.170096 C120.59909,394.539647 120.632227,395.171944 120.262677,395.582372 L114.909632,401.52753 C114.540081,401.937958 113.907784,401.971095 113.497356,401.601544 C113.086929,401.231994 113.053791,400.599697 113.423342,400.189269 L118.776387,394.24411 C119.145938,393.833683 119.778235,393.800546 120.188662,394.170096 Z M381.223613,394.24411 L386.576658,400.189269 C386.946209,400.599697 386.913071,401.231994 386.502644,401.601544 C386.092216,401.971095 385.459919,401.937958 385.090368,401.52753 L379.737323,395.582372 C379.367773,395.171944 379.40091,394.539647 379.811338,394.170096 C380.221765,393.800546 380.854062,393.833683 381.223613,394.24411 Z M105.829904,379.811338 C106.199454,380.221765 106.166317,380.854062 105.75589,381.223613 L99.810731,386.576658 C99.4003035,386.946209 98.7680062,386.913071 98.3984556,386.502644 C98.028905,386.092216 98.0620423,385.459919 98.4724698,385.090368 L104.417628,379.737323 C104.828056,379.367773 105.460353,379.40091 105.829904,379.811338 Z M395.582372,379.737323 L401.52753,385.090368 C401.937958,385.459919 401.971095,386.092216 401.601544,386.502644 C401.231994,386.913071 400.599697,386.946209 400.189269,386.576658 L394.24411,381.223613 C393.833683,380.854062 393.800546,380.221765 394.170096,379.811338 C394.539647,379.40091 395.171944,379.367773 395.582372,379.737323 Z M93.0507031,364.030339 C93.3753279,364.477147 93.2762791,365.102516 92.8294713,365.427141 L86.3573354,370.129423 C85.9105276,370.454048 85.285158,370.354999 84.9605331,369.908191 C84.6359083,369.461384 84.7349571,368.836014 85.1817649,368.511389 L91.6539008,363.809107 C92.1007086,363.484482 92.7260783,363.583531 93.0507031,364.030339 Z M408.346099,363.809107 L414.818235,368.511389 C415.265043,368.836014 415.364092,369.461384 415.039467,369.908191 C414.714842,370.354999 414.089472,370.454048 413.642665,370.129423 L407.170529,365.427141 C406.723721,365.102516 406.624672,364.477147 406.949297,364.030339 C407.273922,363.583531 407.899291,363.484482 408.346099,363.809107 Z M412.446751,342.633975 L426.303157,350.633975 C426.78145,350.910117 426.945325,351.521707 426.669182,352 C426.511387,352.27331 426.244057,352.443953 425.954656,352.488494 L425.845267,352.49924 C425.661797,352.507145 425.473976,352.464648 425.303157,352.366025 L418.374954,348.366025 L418.371,348.364 L411.446751,344.366025 C410.968458,344.089883 410.804583,343.478293 411.080725,343 C411.356867,342.521707 411.968458,342.357832 412.446751,342.633975 Z M88.9192749,343 C89.1954173,343.478293 89.0315421,344.089883 88.5532495,344.366025 L74.696843,352.366025 C74.560188,352.444923 74.4126515,352.487901 74.2651664,352.497889 L74.1547331,352.49924 C73.8244869,352.48501 73.5083377,352.307474 73.3308176,352 C73.0546753,351.521707 73.2185504,350.910117 73.696843,350.633975 L77.623,348.366 L87.5532495,342.633975 C88.0315421,342.357832 88.6431325,342.521707 88.9192749,343 Z M72.7721812,328.906909 C72.9968157,329.411446 72.7699096,330.002556 72.2653724,330.227191 L64.9570087,333.481084 C64.4524715,333.705718 63.8613611,333.478812 63.6367266,332.974275 C63.4120922,332.469738 63.6389982,331.878628 64.1435355,331.653993 L71.4518991,328.4001 C71.9564363,328.175465 72.5475468,328.402372 72.7721812,328.906909 Z M428.548101,328.4001 L435.856465,331.653993 C436.361002,331.878628 436.587908,332.469738 436.363273,332.974275 C436.138639,333.478812 435.547528,333.705718 435.042991,333.481084 L427.734628,330.227191 C427.23009,330.002556 427.003184,329.411446 427.227819,328.906909 C427.452453,328.402372 428.043564,328.175465 428.548101,328.4001 Z M65.4950358,309.949297 C65.6657012,310.474551 65.3782503,311.038705 64.8529963,311.20937 L57.2445442,313.681506 C56.7192902,313.852172 56.155136,313.564721 55.9844707,313.039467 C55.8138053,312.514213 56.1012562,311.950059 56.6265102,311.779393 L64.2349623,309.307257 C64.7602163,309.136592 65.3243705,309.424043 65.4950358,309.949297 Z M435.765038,309.307257 L443.37349,311.779393 C443.898744,311.950059 444.186195,312.514213 444.015529,313.039467 C443.844864,313.564721 443.28071,313.852172 442.755456,313.681506 L435.147004,311.20937 C434.62175,311.038705 434.334299,310.474551 434.504964,309.949297 C434.67563,309.424043 435.239784,309.136592 435.765038,309.307257 Z M440.946694,289.564632 L448.771875,291.227926 C449.312091,291.342752 449.656937,291.873769 449.542111,292.413985 C449.427284,292.954201 448.896267,293.299047 448.356051,293.184221 L440.53087,291.520927 C439.990654,291.406101 439.645808,290.875084 439.760635,290.334868 C439.875461,289.794652 440.406478,289.449806 440.946694,289.564632 Z M60.2393655,290.334868 C60.3541919,290.875084 60.0093456,291.406101 59.4691295,291.520927 L51.6439487,293.184221 C51.1037327,293.299047 50.5727159,292.954201 50.4578895,292.413985 C50.343063,291.873769 50.6879094,291.342752 51.2281254,291.227926 L59.0533062,289.564632 C59.5935222,289.449806 60.124539,289.794652 60.2393655,290.334868 Z M444.036298,269.388528 L451.992473,270.224756 C452.541732,270.282486 452.940196,270.774547 452.882467,271.323807 C452.824737,271.873066 452.332676,272.271529 451.783416,272.2138 L443.827241,271.377572 C443.277982,271.319843 442.879518,270.827781 442.937248,270.278522 C442.994977,269.729263 443.487039,269.330799 444.036298,269.388528 Z M57.0627523,270.278522 C57.1204818,270.827781 56.7220181,271.319843 56.1727589,271.377572 L48.2165837,272.2138 C47.6673244,272.271529 47.1752628,271.873066 47.1175333,271.323807 C47.0598039,270.774547 47.4582675,270.282486 48.0075268,270.224756 L55.9637019,269.388528 C56.5129612,269.330799 57.0050228,269.729263 57.0627523,270.278522 Z M437,251 C436.447715,251 436,250.552285 436,250 C436,249.447715 436.447715,249 437,249 L453,249 C453.552285,249 454,249.447715 454,250 C454,250.512836 453.61396,250.935507 453.116621,250.993272 L453,251 L437,251 Z M63,249 C63.5522847,249 64,249.447715 64,250 C64,250.552285 63.5522847,251 63,251 L47,251 C46.4477153,251 46,250.552285 46,250 C46,249.447715 46.4477153,249 47,249 L63,249 Z M452.882467,228.676193 C452.940196,229.225453 452.541732,229.717514 451.992473,229.775244 L444.036298,230.611472 C443.487039,230.669201 442.994977,230.270737 442.937248,229.721478 C442.879518,229.172219 443.277982,228.680157 443.827241,228.622428 L451.783416,227.7862 C452.332676,227.728471 452.824737,228.126934 452.882467,228.676193 Z M48.2165837,227.7862 L56.1727589,228.622428 C56.7220181,228.680157 57.1204818,229.172219 57.0627523,229.721478 C57.0050228,230.270737 56.5129612,230.669201 55.9637019,230.611472 L48.0075268,229.775244 C47.4582675,229.717514 47.0598039,229.225453 47.1175333,228.676193 C47.1752628,228.126934 47.6673244,227.728471 48.2165837,227.7862 Z M449.542111,207.586015 C449.656937,208.126231 449.312091,208.657248 448.771875,208.772074 L440.946694,210.435368 C440.406478,210.550194 439.875461,210.205348 439.760635,209.665132 C439.645808,209.124916 439.990654,208.593899 440.53087,208.479073 L448.356051,206.815779 C448.896267,206.700953 449.427284,207.045799 449.542111,207.586015 Z M51.6439487,206.815779 L59.4691295,208.479073 C60.0093456,208.593899 60.3541919,209.124916 60.2393655,209.665132 C60.124539,210.205348 59.5935222,210.550194 59.0533062,210.435368 L51.2281254,208.772074 C50.6879094,208.657248 50.343063,208.126231 50.4578895,207.586015 C50.5727159,207.045799 51.1037327,206.700953 51.6439487,206.815779 Z M57.2445442,186.318494 L64.8529963,188.79063 C65.3782503,188.961295 65.6657012,189.525449 65.4950358,190.050703 C65.3243705,190.575957 64.7602163,190.863408 64.2349623,190.692743 L56.6265102,188.220607 C56.1012562,188.049941 55.8138053,187.485787 55.9844707,186.960533 C56.155136,186.435279 56.7192902,186.147828 57.2445442,186.318494 Z M444.015529,186.960533 C444.186195,187.485787 443.898744,188.049941 443.37349,188.220607 L435.765038,190.692743 C435.239784,190.863408 434.67563,190.575957 434.504964,190.050703 C434.334299,189.525449 434.62175,188.961295 435.147004,188.79063 L442.755456,186.318494 C443.28071,186.147828 443.844864,186.435279 444.015529,186.960533 Z M64.9570087,166.518916 L72.2653724,169.772809 C72.7699096,169.997444 72.9968157,170.588554 72.7721812,171.093091 C72.5475468,171.597628 71.9564363,171.824535 71.4518991,171.5999 L64.1435355,168.346007 C63.6389982,168.121372 63.4120922,167.530262 63.6367266,167.025725 C63.8613611,166.521188 64.4524715,166.294282 64.9570087,166.518916 Z M436.363273,167.025725 C436.587908,167.530262 436.361002,168.121372 435.856465,168.346007 L428.548101,171.5999 C428.043564,171.824535 427.452453,171.597628 427.227819,171.093091 C427.003184,170.588554 427.23009,169.997444 427.734628,169.772809 L435.042991,166.518916 C435.547528,166.294282 436.138639,166.521188 436.363273,167.025725 Z M425.845267,147.50076 L425.954656,147.511506 C426.244057,147.556047 426.511387,147.72669 426.669182,148 C426.945325,148.478293 426.78145,149.089883 426.303157,149.366025 L412.446751,157.366025 C411.968458,157.642168 411.356867,157.478293 411.080725,157 C410.804583,156.521707 410.968458,155.910117 411.446751,155.633975 L418.371789,151.63581 L425.303157,147.633975 C425.473976,147.535352 425.661797,147.492855 425.845267,147.50076 Z M74.1547331,147.50076 L74.2651664,147.502111 C74.4126515,147.512099 74.560188,147.555077 74.696843,147.633975 L81.6250463,151.633975 L81.628,151.635 L88.5532495,155.633975 C89.0315421,155.910117 89.1954173,156.521707 88.9192749,157 C88.6431325,157.478293 88.0315421,157.642168 87.5532495,157.366025 L73.696843,149.366025 C73.2185504,149.089883 73.0546753,148.478293 73.3308176,148 C73.5083377,147.692526 73.8244869,147.51499 74.1547331,147.50076 Z M86.3573354,129.870577 L92.8294713,134.572859 C93.2762791,134.897484 93.3753279,135.522853 93.0507031,135.969661 C92.7260783,136.416469 92.1007086,136.515518 91.6539008,136.190893 L85.1817649,131.488611 C84.7349571,131.163986 84.6359083,130.538616 84.9605331,130.091809 C85.285158,129.645001 85.9105276,129.545952 86.3573354,129.870577 Z M415.039467,130.091809 C415.364092,130.538616 415.265043,131.163986 414.818235,131.488611 L408.346099,136.190893 C407.899291,136.515518 407.273922,136.416469 406.949297,135.969661 C406.624672,135.522853 406.723721,134.897484 407.170529,134.572859 L413.642665,129.870577 C414.089472,129.545952 414.714842,129.645001 415.039467,130.091809 Z M99.810731,113.423342 L105.75589,118.776387 C106.166317,119.145938 106.199454,119.778235 105.829904,120.188662 C105.460353,120.59909 104.828056,120.632227 104.417628,120.262677 L98.4724698,114.909632 C98.0620423,114.540081 98.028905,113.907784 98.3984556,113.497356 C98.7680062,113.086929 99.4003035,113.053791 99.810731,113.423342 Z M401.601544,113.497356 C401.971095,113.907784 401.937958,114.540081 401.52753,114.909632 L395.582372,120.262677 C395.171944,120.632227 394.539647,120.59909 394.170096,120.188662 C393.800546,119.778235 393.833683,119.145938 394.24411,118.776387 L400.189269,113.423342 C400.599697,113.053791 401.231994,113.086929 401.601544,113.497356 Z M114.909632,98.4724698 L120.262677,104.417628 C120.632227,104.828056 120.59909,105.460353 120.188662,105.829904 C119.778235,106.199454 119.145938,106.166317 118.776387,105.75589 L113.423342,99.810731 C113.053791,99.4003035 113.086929,98.7680062 113.497356,98.3984556 C113.907784,98.028905 114.540081,98.0620423 114.909632,98.4724698 Z M386.502644,98.3984556 C386.913071,98.7680062 386.946209,99.4003035 386.576658,99.810731 L381.223613,105.75589 C380.854062,106.166317 380.221765,106.199454 379.811338,105.829904 C379.40091,105.460353 379.367773,104.828056 379.737323,104.417628 L385.090368,98.4724698 C385.459919,98.0620423 386.092216,98.028905 386.502644,98.3984556 Z M131.488611,85.1817649 L136.190893,91.6539008 C136.515518,92.1007086 136.416469,92.7260783 135.969661,93.0507031 C135.522853,93.3753279 134.897484,93.2762791 134.572859,92.8294713 L129.870577,86.3573354 C129.545952,85.9105276 129.645001,85.285158 130.091809,84.9605331 C130.538616,84.6359083 131.163986,84.7349571 131.488611,85.1817649 Z M369.908191,84.9605331 C370.354999,85.285158 370.454048,85.9105276 370.129423,86.3573354 L365.427141,92.8294713 C365.102516,93.2762791 364.477147,93.3753279 364.030339,93.0507031 C363.583531,92.7260783 363.484482,92.1007086 363.809107,91.6539008 L368.511389,85.1817649 C368.836014,84.7349571 369.461384,84.6359083 369.908191,84.9605331 Z M351.45789,73.1976033 L351.568323,73.1989541 C351.715808,73.2089418 351.863345,73.2519198 352,73.3308176 C352.478293,73.60696 352.642168,74.2185504 352.366025,74.696843 L348.506,81.383 L344.366025,88.5532495 C344.089883,89.0315421 343.478293,89.1954173 343,88.9192749 C342.521707,88.6431325 342.357832,88.0315421 342.633975,87.5532495 L350.633975,73.696843 C350.811495,73.3893692 351.127644,73.2118332 351.45789,73.1976033 Z M148.54211,73.1976033 L148.651499,73.2083492 C148.9409,73.2528898 149.20823,73.423533 149.366025,73.696843 L157.366025,87.5532495 C157.642168,88.0315421 157.478293,88.6431325 157,88.9192749 C156.521707,89.1954173 155.910117,89.0315421 155.633975,88.5532495 L151.494,81.383 L147.633975,74.696843 C147.357832,74.2185504 147.521707,73.60696 148,73.3308176 C148.170819,73.2321954 148.35864,73.1896978 148.54211,73.1976033 Z M168.346007,64.1435355 L171.5999,71.4518991 C171.824535,71.9564363 171.597628,72.5475468 171.093091,72.7721812 C170.588554,72.9968157 169.997444,72.7699096 169.772809,72.2653724 L166.518916,64.9570087 C166.294282,64.4524715 166.521188,63.8613611 167.025725,63.6367266 C167.530262,63.4120922 168.121372,63.6389982 168.346007,64.1435355 Z M332.974275,63.6367266 C333.478812,63.8613611 333.705718,64.4524715 333.481084,64.9570087 L330.227191,72.2653724 C330.002556,72.7699096 329.411446,72.9968157 328.906909,72.7721812 C328.402372,72.5475468 328.175465,71.9564363 328.4001,71.4518991 L331.653993,64.1435355 C331.878628,63.6389982 332.469738,63.4120922 332.974275,63.6367266 Z M313.039467,55.9844707 C313.564721,56.155136 313.852172,56.7192902 313.681506,57.2445442 L311.20937,64.8529963 C311.038705,65.3782503 310.474551,65.6657012 309.949297,65.4950358 C309.424043,65.3243705 309.136592,64.7602163 309.307257,64.2349623 L311.779393,56.6265102 C311.950059,56.1012562 312.514213,55.8138053 313.039467,55.9844707 Z M188.220607,56.6265102 L190.692743,64.2349623 C190.863408,64.7602163 190.575957,65.3243705 190.050703,65.4950358 C189.525449,65.6657012 188.961295,65.3782503 188.79063,64.8529963 L186.318494,57.2445442 C186.147828,56.7192902 186.435279,56.155136 186.960533,55.9844707 C187.485787,55.8138053 188.049941,56.1012562 188.220607,56.6265102 Z M250,46 C250.552285,46 251,46.4477153 251,47 L251,63 C251,63.5522847 250.552285,64 250,64 C249.447715,64 249,63.5522847 249,63 L249,47 C249,46.4477153 249.447715,46 250,46 Z M208.772074,51.2281254 L210.435368,59.0533062 C210.550194,59.5935222 210.205348,60.124539 209.665132,60.2393655 C209.124916,60.3541919 208.593899,60.0093456 208.479073,59.4691295 L206.815779,51.6439487 C206.700953,51.1037327 207.045799,50.5727159 207.586015,50.4578895 C208.126231,50.343063 208.657248,50.6879094 208.772074,51.2281254 Z M292.413985,50.4578895 C292.954201,50.5727159 293.299047,51.1037327 293.184221,51.6439487 L291.520927,59.4691295 C291.406101,60.0093456 290.875084,60.3541919 290.334868,60.2393655 C289.794652,60.124539 289.449806,59.5935222 289.564632,59.0533062 L291.227926,51.2281254 C291.342752,50.6879094 291.873769,50.343063 292.413985,50.4578895 Z M229.775244,48.0075268 L230.611472,55.9637019 C230.669201,56.5129612 230.270737,57.0050228 229.721478,57.0627523 C229.172219,57.1204818 228.680157,56.7220181 228.622428,56.1727589 L227.7862,48.2165837 C227.728471,47.6673244 228.126934,47.1752628 228.676193,47.1175333 C229.225453,47.0598039 229.717514,47.4582675 229.775244,48.0075268 Z M271.323807,47.1175333 C271.873066,47.1752628 272.271529,47.6673244 272.2138,48.2165837 L271.377572,56.1727589 C271.319843,56.7220181 270.827781,57.1204818 270.278522,57.0627523 C269.729263,57.0050228 269.330799,56.5129612 269.388528,55.9637019 L270.224756,48.0075268 C270.282486,47.4582675 270.774547,47.0598039 271.323807,47.1175333 Z" id="Combined-Shape" fill="#FFFFFF"></path>
        <g id="Group" transform="translate(72.042, 74.3789)" fill="#FFFFFF" fill-rule="nonzero">
            <path d="M171.791016,21.6210938 L169.066406,21.6210938 L169.066406,3.55957031 L163.602539,5.56640625 L163.602539,3.10546875 L171.366211,0.190429688 L171.791016,0.190429688 L171.791016,21.6210938 Z M193.705078,21.6210938 L179.730469,21.6210938 L179.730469,19.6728516 L187.113281,11.4697266 C188.207031,10.2294922 188.961426,9.22119141 189.376465,8.44482422 C189.791504,7.66845703 189.999023,6.86523438 189.999023,6.03515625 C189.999023,4.921875 189.662109,4.00878906 188.988281,3.29589844 C188.314453,2.58300781 187.416016,2.2265625 186.292969,2.2265625 C184.945312,2.2265625 183.897949,2.60986328 183.150879,3.37646484 C182.403809,4.14306641 182.030273,5.20996094 182.030273,6.57714844 L179.320312,6.57714844 C179.320312,4.61425781 179.952637,3.02734375 181.217285,1.81640625 C182.481934,0.60546875 184.173828,0 186.292969,0 C188.275391,0 189.842773,0.520019531 190.995117,1.56005859 C192.147461,2.60009766 192.723633,3.984375 192.723633,5.71289062 C192.723633,7.8125 191.385742,10.3125 188.709961,13.2128906 L182.99707,19.4091797 L193.705078,19.4091797 L193.705078,21.6210938 Z M181.942383,330.27832 L181.942383,332.578125 L181.444336,332.578125 C179.334961,332.617188 177.655273,333.242188 176.405273,334.453125 C175.155273,335.664062 174.432617,337.368164 174.237305,339.56543 C175.360352,338.276367 176.893555,337.631836 178.836914,337.631836 C180.692383,337.631836 182.174316,338.286133 183.282715,339.594727 C184.391113,340.90332 184.945312,342.592773 184.945312,344.663086 C184.945312,346.860352 184.347168,348.618164 183.150879,349.936523 C181.95459,351.254883 180.350586,351.914062 178.338867,351.914062 C176.297852,351.914062 174.642578,351.130371 173.373047,349.562988 C172.103516,347.995605 171.46875,345.976562 171.46875,343.505859 L171.46875,342.46582 C171.46875,338.540039 172.306152,335.539551 173.980957,333.464355 C175.655762,331.38916 178.148438,330.327148 181.458984,330.27832 L181.942383,330.27832 Z M178.382812,339.887695 C177.455078,339.887695 176.600586,340.166016 175.819336,340.722656 C175.038086,341.279297 174.496094,341.977539 174.193359,342.817383 L174.193359,343.813477 C174.193359,345.571289 174.588867,346.987305 175.379883,348.061523 C176.170898,349.135742 177.157227,349.672852 178.338867,349.672852 C179.55957,349.672852 180.519043,349.223633 181.217285,348.325195 C181.915527,347.426758 182.264648,346.25 182.264648,344.794922 C182.264648,343.330078 181.910645,342.145996 181.202637,341.242676 C180.494629,340.339355 179.554688,339.887695 178.382812,339.887695 Z M346.248047,174.638672 L348.28418,174.638672 C349.563477,174.619141 350.569336,174.282227 351.301758,173.62793 C352.03418,172.973633 352.400391,172.089844 352.400391,170.976562 C352.400391,168.476562 351.155273,167.226562 348.665039,167.226562 C347.493164,167.226562 346.558105,167.561035 345.859863,168.22998 C345.161621,168.898926 344.8125,169.785156 344.8125,170.888672 L342.102539,170.888672 C342.102539,169.199219 342.720215,167.79541 343.955566,166.677246 C345.190918,165.559082 346.760742,165 348.665039,165 C350.676758,165 352.253906,165.532227 353.396484,166.59668 C354.539062,167.661133 355.110352,169.140625 355.110352,171.035156 C355.110352,171.962891 354.810059,172.861328 354.209473,173.730469 C353.608887,174.599609 352.791016,175.249023 351.755859,175.678711 C352.927734,176.049805 353.833496,176.665039 354.473145,177.524414 C355.112793,178.383789 355.432617,179.433594 355.432617,180.673828 C355.432617,182.587891 354.807617,184.106445 353.557617,185.229492 C352.307617,186.352539 350.681641,186.914062 348.679688,186.914062 C346.677734,186.914062 345.049316,186.37207 343.794434,185.288086 C342.539551,184.204102 341.912109,182.773438 341.912109,180.996094 L344.636719,180.996094 C344.636719,182.119141 345.00293,183.017578 345.735352,183.691406 C346.467773,184.365234 347.449219,184.702148 348.679688,184.702148 C349.988281,184.702148 350.989258,184.360352 351.682617,183.676758 C352.375977,182.993164 352.722656,182.011719 352.722656,180.732422 C352.722656,179.492188 352.341797,178.540039 351.580078,177.875977 C350.818359,177.211914 349.719727,176.870117 348.28418,176.850586 L346.248047,176.850586 L346.248047,174.638672 Z M334.282227,108.621094 L320.307617,108.621094 L320.307617,106.672852 L327.69043,98.4697266 C328.78418,97.2294922 329.538574,96.2211914 329.953613,95.4448242 C330.368652,94.668457 330.576172,93.8652344 330.576172,93.0351562 C330.576172,91.921875 330.239258,91.0087891 329.56543,90.2958984 C328.891602,89.5830078 327.993164,89.2265625 326.870117,89.2265625 C325.522461,89.2265625 324.475098,89.6098633 323.728027,90.3764648 C322.980957,91.1430664 322.607422,92.2099609 322.607422,93.5771484 L319.897461,93.5771484 C319.897461,91.6142578 320.529785,90.0273438 321.794434,88.8164062 C323.059082,87.6054688 324.750977,87 326.870117,87 C328.852539,87 330.419922,87.5200195 331.572266,88.5600586 C332.724609,89.6000977 333.300781,90.984375 333.300781,92.7128906 C333.300781,94.8125 331.962891,97.3125 329.287109,100.212891 L323.574219,106.40918 L334.282227,106.40918 L334.282227,108.621094 Z M32.7910156,108.621094 L30.0664062,108.621094 L30.0664062,90.5595703 L24.6025391,92.5664062 L24.6025391,90.1054688 L32.3662109,87.1904297 L32.7910156,87.1904297 L32.7910156,108.621094 Z M54.1044922,99.5244141 C54.1044922,102.698242 53.5625,105.056641 52.4785156,106.599609 C51.3945312,108.142578 49.7001953,108.914062 47.3955078,108.914062 C45.1201172,108.914062 43.4355469,108.159668 42.3417969,106.650879 C41.2480469,105.14209 40.6816406,102.888672 40.6425781,99.890625 L40.6425781,96.2724609 C40.6425781,93.1376953 41.1845703,90.8085938 42.2685547,89.2851562 C43.3525391,87.7617188 45.0517578,87 47.3662109,87 C49.6611328,87 51.3505859,87.7348633 52.4345703,89.2045898 C53.5185547,90.6743164 54.0751953,92.9423828 54.1044922,96.0087891 L54.1044922,99.5244141 Z M51.3945312,95.8183594 C51.3945312,93.5234375 51.0722656,91.8510742 50.4277344,90.8012695 C49.7832031,89.7514648 48.7626953,89.2265625 47.3662109,89.2265625 C45.9794922,89.2265625 44.96875,89.7490234 44.3339844,90.7939453 C43.6992188,91.8388672 43.3720703,93.4453125 43.3525391,95.6132812 L43.3525391,99.9492188 C43.3525391,102.253906 43.6870117,103.955566 44.355957,105.054199 C45.0249023,106.152832 46.0380859,106.702148 47.3955078,106.702148 C48.7333984,106.702148 49.7270508,106.18457 50.3764648,105.149414 C51.0258789,104.114258 51.3652344,102.483398 51.3945312,100.256836 L51.3945312,95.8183594 Z M322.748047,258.458008 L325.707031,258.458008 L325.707031,260.669922 L322.748047,260.669922 L322.748047,265.621094 L320.023438,265.621094 L320.023438,260.669922 L310.311523,260.669922 L310.311523,259.073242 L319.862305,244.292969 L322.748047,244.292969 L322.748047,258.458008 Z M313.387695,258.458008 L320.023438,258.458008 L320.023438,247.999023 L319.701172,248.584961 L313.387695,258.458008 Z M45.2421875,249.859375 C45.2421875,250.923828 44.9614258,251.871094 44.3999023,252.701172 C43.8383789,253.53125 43.0791016,254.180664 42.1220703,254.649414 C43.2353516,255.12793 44.1166992,255.826172 44.7661133,256.744141 C45.4155273,257.662109 45.7402344,258.702148 45.7402344,259.864258 C45.7402344,261.709961 45.1176758,263.179688 43.8725586,264.273438 C42.6274414,265.367188 40.9892578,265.914062 38.9580078,265.914062 C36.9072266,265.914062 35.2641602,265.364746 34.0288086,264.266113 C32.793457,263.16748 32.1757812,261.700195 32.1757812,259.864258 C32.1757812,258.711914 32.4907227,257.671875 33.1206055,256.744141 C33.7504883,255.816406 34.6220703,255.113281 35.7353516,254.634766 C34.7880859,254.166016 34.0410156,253.516602 33.4941406,252.686523 C32.9472656,251.856445 32.6738281,250.914062 32.6738281,249.859375 C32.6738281,248.0625 33.25,246.636719 34.4023438,245.582031 C35.5546875,244.527344 37.0732422,244 38.9580078,244 C40.8330078,244 42.3491211,244.527344 43.5063477,245.582031 C44.6635742,246.636719 45.2421875,248.0625 45.2421875,249.859375 Z M43.0302734,259.805664 C43.0302734,258.614258 42.6518555,257.642578 41.8950195,256.890625 C41.1381836,256.138672 40.1494141,255.762695 38.9287109,255.762695 C37.7080078,255.762695 36.7290039,256.133789 35.9916992,256.875977 C35.2543945,257.618164 34.8857422,258.594727 34.8857422,259.805664 C34.8857422,261.016602 35.2446289,261.96875 35.9624023,262.662109 C36.6801758,263.355469 37.6787109,263.702148 38.9580078,263.702148 C40.2275391,263.702148 41.2236328,263.353027 41.9462891,262.654785 C42.6689453,261.956543 43.0302734,261.006836 43.0302734,259.805664 Z M38.9580078,246.226562 C37.8935547,246.226562 37.0317383,246.556152 36.3725586,247.215332 C35.7133789,247.874512 35.3837891,248.770508 35.3837891,249.90332 C35.3837891,250.987305 35.7084961,251.86377 36.3579102,252.532715 C37.0073242,253.20166 37.8740234,253.536133 38.9580078,253.536133 C40.0419922,253.536133 40.9086914,253.20166 41.5581055,252.532715 C42.2075195,251.86377 42.5322266,250.987305 42.5322266,249.90332 C42.5322266,248.819336 42.1953125,247.935547 41.5214844,247.251953 C40.8476562,246.568359 39.9931641,246.226562 38.9580078,246.226562 Z M85.7910156,48.6210938 L83.0664062,48.6210938 L83.0664062,30.5595703 L77.6025391,32.5664062 L77.6025391,30.1054688 L85.3662109,27.1904297 L85.7910156,27.1904297 L85.7910156,48.6210938 Z M102.636719,48.6210938 L99.9121094,48.6210938 L99.9121094,30.5595703 L94.4482422,32.5664062 L94.4482422,30.1054688 L102.211914,27.1904297 L102.636719,27.1904297 L102.636719,48.6210938 Z M266.213867,48.6210938 L263.489258,48.6210938 L263.489258,30.5595703 L258.025391,32.5664062 L258.025391,30.1054688 L265.789062,27.1904297 L266.213867,27.1904297 L266.213867,48.6210938 Z M99.0771484,299.816406 L90.2441406,319.621094 L87.4023438,319.621094 L96.2060547,300.519531 L84.6630859,300.519531 L84.6630859,298.292969 L99.0771484,298.292969 L99.0771484,299.816406 Z M258.552734,308.927734 L259.636719,298.292969 L270.564453,298.292969 L270.564453,300.797852 L261.936523,300.797852 L261.291992,306.613281 C262.336914,305.998047 263.523438,305.69043 264.851562,305.69043 C266.794922,305.69043 268.337891,306.33252 269.480469,307.616699 C270.623047,308.900879 271.194336,310.636719 271.194336,312.824219 C271.194336,315.021484 270.601074,316.752441 269.414551,318.01709 C268.228027,319.281738 266.570312,319.914062 264.441406,319.914062 C262.556641,319.914062 261.018555,319.391602 259.827148,318.34668 C258.635742,317.301758 257.957031,315.856445 257.791016,314.010742 L260.354492,314.010742 C260.520508,315.231445 260.955078,316.151855 261.658203,316.771973 C262.361328,317.39209 263.289062,317.702148 264.441406,317.702148 C265.701172,317.702148 266.689941,317.272461 267.407715,316.413086 C268.125488,315.553711 268.484375,314.367188 268.484375,312.853516 C268.484375,311.427734 268.096191,310.282715 267.319824,309.418457 C266.543457,308.554199 265.510742,308.12207 264.22168,308.12207 C263.040039,308.12207 262.112305,308.380859 261.438477,308.898438 L260.720703,309.484375 L258.552734,308.927734 Z M10.6933594,177.246094 C10.1269531,177.919922 9.45068359,178.461914 8.66455078,178.87207 C7.87841797,179.282227 7.01660156,179.487305 6.07910156,179.487305 C4.84863281,179.487305 3.77685547,179.18457 2.86376953,178.579102 C1.95068359,177.973633 1.24511719,177.121582 0.747070312,176.022949 C0.249023438,174.924316 0,173.710938 0,172.382812 C0,170.957031 0.270996094,169.672852 0.812988281,168.530273 C1.35498047,167.387695 2.12402344,166.513672 3.12011719,165.908203 C4.11621094,165.302734 5.27832031,165 6.60644531,165 C8.71582031,165 10.378418,165.788574 11.5942383,167.365723 C12.8100586,168.942871 13.4179688,171.09375 13.4179688,173.818359 L13.4179688,174.609375 C13.4179688,178.759766 12.5976562,181.789551 10.9570312,183.69873 C9.31640625,185.60791 6.84082031,186.586914 3.53027344,186.635742 L3.00292969,186.635742 L3.00292969,184.350586 L3.57421875,184.350586 C5.81054688,184.311523 7.52929688,183.728027 8.73046875,182.600098 C9.93164062,181.472168 10.5859375,179.6875 10.6933594,177.246094 Z M6.51855469,177.246094 C7.42675781,177.246094 8.26416016,176.967773 9.03076172,176.411133 C9.79736328,175.854492 10.3564453,175.166016 10.7080078,174.345703 L10.7080078,173.261719 C10.7080078,171.484375 10.3222656,170.039062 9.55078125,168.925781 C8.77929688,167.8125 7.80273438,167.255859 6.62109375,167.255859 C5.4296875,167.255859 4.47265625,167.712402 3.75,168.625488 C3.02734375,169.538574 2.66601562,170.742188 2.66601562,172.236328 C2.66601562,173.691406 3.01513672,174.890137 3.71337891,175.83252 C4.41162109,176.774902 5.34667969,177.246094 6.51855469,177.246094 Z" id="Combined-Shape"></path>
        </g>
        <path d="M264.938167,417.25 C264.938167,247.852009 264.938167,120.803515 264.938167,36.1045197 C264.938167,21.6924042 264.938167,0.0742309696 264.938167,-28.75 C141.778668,-28.75 41.9381675,71.0905008 41.9381675,194.25 C41.9381675,317.409499 137.304193,417.181471 264.938167,417.25 Z" id="Oval" fill="url(#linearGradient-4)" opacity="0.0452938988" transform="translate(153.4382, 194.25) rotate(30) translate(-153.4382, -194.25)"></path>
        <path d="M227.278948,173.661557 L227.278948,170.006312 L231.668714,170.006312 C232.451383,170.006312 233.031975,169.810611 233.410488,169.41921 C233.789002,169.02781 233.978258,168.434003 233.978258,167.637792 L233.978258,163.951064 C233.978258,163.370182 233.892639,162.895749 233.7214,162.527766 C233.55016,162.159783 233.293156,161.888193 232.950386,161.712995 C232.607616,161.537798 232.168445,161.450199 231.632873,161.450199 L227.278948,161.450199 L227.278948,158.133689 L231.427445,158.133689 C232.228568,158.133689 232.793862,157.957276 233.123325,157.604452 C233.452788,157.251628 233.61752,156.660202 233.61752,155.830176 L233.61752,152.636391 C233.61752,151.863112 233.44696,151.296271 233.105842,150.935867 C232.764723,150.575464 232.219438,150.395262 231.469987,150.395262 L227.278948,150.395262 L227.278948,146.740017 L232.575515,146.740017 C233.761854,146.740017 234.768407,146.944414 235.595173,147.353208 C236.421938,147.762003 237.05192,148.366789 237.485117,149.167567 C237.918315,149.968345 238.134914,150.955058 238.134914,152.127706 L238.134914,155.005785 C238.134914,155.967769 238.001458,156.762765 237.734546,157.390775 C237.467634,158.018785 237.097377,158.499097 236.623773,158.83171 C236.15017,159.164323 235.599155,159.373287 234.970727,159.458602 L234.970727,159.595903 C235.697644,159.714839 236.336173,159.964955 236.886314,160.34625 C237.436456,160.727545 237.865282,161.266499 238.172794,161.963111 C238.480306,162.659723 238.634062,163.530901 238.634062,164.576645 L238.634062,167.789669 C238.634062,169.042191 238.408042,170.106057 237.956001,170.981267 C237.503961,171.856478 236.834156,172.521995 235.946587,172.97782 C235.059018,173.433644 233.964952,173.661557 232.664388,173.661557 L227.278948,173.661557 Z M225,173.661557 L225,146.740017 L229.556149,146.740017 L229.556149,173.661557 L225,173.661557 Z M268.198704,174 C266.77498,174 265.561834,173.729576 264.559263,173.188727 C263.556693,172.647879 262.782328,171.875037 262.23617,170.870202 C261.690011,169.865367 261.395951,168.672459 261.353991,167.291478 L261.34321,165.621125 L265.743174,165.621125 L265.755995,167.519148 C265.797178,168.069324 265.919561,168.5337 266.123145,168.912274 C266.326728,169.290849 266.603401,169.575946 266.953164,169.767565 C267.302928,169.959184 267.715776,170.054994 268.191711,170.054994 C268.654824,170.054994 269.052958,169.965306 269.386112,169.78593 C269.719266,169.606554 269.973114,169.345361 270.147655,169.002351 C270.322197,168.659341 270.409468,168.247048 270.409468,167.765474 L270.409468,166.802616 C270.409468,165.840438 270.198162,165.036308 269.775552,164.390224 C269.352942,163.744141 268.573332,163.020758 267.436723,162.220077 L265.862061,161.135368 C264.47952,160.198455 263.421829,159.162914 262.688987,158.028745 C261.956145,156.894576 261.589724,155.47259 261.589724,153.762786 L261.589724,152.951805 C261.589919,151.639233 261.862513,150.491849 262.407506,149.509654 C262.952499,148.527459 263.724241,147.763897 264.722732,147.218968 C265.721223,146.674038 266.898432,146.401574 268.254359,146.401574 C269.628547,146.401574 270.792449,146.671998 271.746066,147.212846 C272.699683,147.753694 273.429465,148.521386 273.935413,149.515922 C274.44136,150.510457 274.709874,151.689858 274.740956,153.054125 L274.759605,154.791234 L270.387905,154.791234 L270.374792,152.888256 C270.347402,152.333415 270.249253,151.86627 270.080344,151.486821 C269.911436,151.107372 269.673275,150.821401 269.36586,150.628907 C269.058445,150.436413 268.685517,150.340166 268.247075,150.340166 C267.812906,150.337057 267.44124,150.426891 267.132077,150.609667 C266.822914,150.792444 266.585481,151.048536 266.419778,151.377942 C266.254075,151.707349 266.171224,152.098652 266.171224,152.551853 L266.171224,153.433088 C266.171224,154.328996 266.38146,155.096979 266.801934,155.737038 C267.222407,156.377097 267.927324,157.056073 268.916685,157.773965 L270.484646,158.858966 C271.566668,159.589101 272.438502,160.316128 273.100148,161.040044 C273.761794,161.763961 274.243847,162.556237 274.546308,163.416872 C274.848769,164.277507 275,165.277435 275,166.416656 L275,167.288855 C275,168.66828 274.725366,169.859391 274.176099,170.862185 C273.626832,171.86498 272.843677,172.638648 271.826635,173.183189 C270.809592,173.72773 269.600282,174 268.198704,174 Z M249.941718,138 C253.984606,138 257.262015,141.278778 257.262015,145.323355 L257.262015,173.661557 L252.593999,173.661557 L252.59342,161.668 L247.28942,161.668 L247.289436,173.661557 L242.62142,173.661557 L242.62142,145.323355 C242.62142,141.278778 245.898829,138 249.941718,138 Z M249.941718,142.669966 C248.476903,142.669966 247.289436,143.857929 247.289436,145.323355 L247.28942,158.271 L252.59342,158.271 L252.593999,145.323355 C252.593999,143.857929 251.406532,142.669966 249.941718,142.669966 Z" id="Combined-Shape" fill="#FFFFFF" fill-rule="nonzero"></path>
    </g>
</svg>