<?xml version="1.0" encoding="UTF-8"?>
<svg width="500px" height="500px" viewBox="0 0 500 500" version="1.1" xmlns="http://www.w3.org/2000/svg" xmlns:xlink="http://www.w3.org/1999/xlink">
    <title>clock-face-big-ns-light</title>
    <defs>
        <path d="M92.2998672,0 L407.700133,7.25467311e-15 C439.794807,-4.215174e-15 451.433112,3.341722 463.166445,9.61677734 C474.899779,15.8918327 484.108167,25.1002213 490.383223,36.8335547 C496.658278,48.566888 500,60.2051926 500,92.2998672 L500,407.700133 C500,439.794807 496.658278,451.433112 490.383223,463.166445 C484.108167,474.899779 474.899779,484.108167 463.166445,490.383223 C451.433112,496.658278 439.794807,500 407.700133,500 L92.2998672,500 C60.2051926,500 48.566888,496.658278 36.8335547,490.383223 C25.1002213,484.108167 15.8918327,474.899779 9.61677734,463.166445 C3.341722,451.433112 0,439.794807 0,407.700133 L0,92.2998672 C0,60.2051926 3.341722,48.566888 9.61677734,36.8335547 C15.8918327,25.1002213 25.1002213,15.8918327 36.8335547,9.61677734 C48.566888,3.341722 60.2051926,0 92.2998672,0 Z" id="path-1"></path>
    </defs>
    <g id="clock-face-big-ns-light" stroke="none" stroke-width="1" fill="none" fill-rule="evenodd">
        <g id="Rectangle" stroke-linejoin="square">
            <path stroke="#0163D3" stroke-width="14" d="M408.597792,7.00086649 C438.032785,7.05805911 448.940604,9.94690308 459.865253,15.7894697 C470.360664,21.4024767 478.597523,29.6393362 484.21053,40.1347467 C490.112113,51.1697465 493,62.1875731 493,92.2998672 L493,407.700133 C493,437.812427 490.112113,448.830254 484.21053,459.865253 C478.597523,470.360664 470.360664,478.597523 459.865253,484.21053 C448.830254,490.112113 437.812427,493 407.700133,493 L92.2998672,493 C62.1875731,493 51.1697465,490.112113 40.1347467,484.21053 C29.6393362,478.597523 21.4024767,470.360664 15.7894697,459.865253 C9.88788725,448.830254 7,437.812427 7,407.700133 L7.00086649,91.4022076 C7.05805911,61.9672149 9.94690308,51.0593965 15.7894697,40.1347467 C21.4024767,29.6393362 29.6393362,21.4024767 40.1347467,15.7894697 C51.1697465,9.88788725 62.1875731,7 92.2998672,7 Z" fill="#FFFFFF" fill-rule="evenodd"></path>
            <path stroke-opacity="0.2" stroke="#FFFFFF" stroke-width="2" d="M408.648419,1.00098273 C439.742612,1.06583225 451.177611,4.33910549 462.694846,10.4985905 C474.251334,16.6790675 483.320932,25.7486663 489.501409,37.3051535 C495.723112,48.9387249 499,60.4883898 499,92.2998672 L499,407.700133 C499,439.51161 495.723112,451.061275 489.501409,462.694846 C483.320932,474.251334 474.251334,483.320932 462.694846,489.501409 C451.061275,495.723112 439.51161,499 407.700133,499 L92.2998672,499 C60.4883898,499 48.9387249,495.723112 37.3051535,489.501409 C25.7486663,483.320932 16.6790675,474.251334 10.4985905,462.694846 C4.27688847,451.061275 1,439.51161 1,407.700133 L1.00098273,91.3515811 C1.06583225,60.2573881 4.33910549,48.8223892 10.4985905,37.3051535 C16.6790675,25.7486663 25.7486663,16.6790675 37.3051535,10.4985905 C48.9387249,4.27688847 60.4883898,1 92.2998672,1 Z"></path>
        </g>
        <path d="M250,27 C255.522847,27 260,31.4771525 260,37 L260,67 C260,72.5228475 255.522847,77 250,77 C244.477153,77 240,72.5228475 240,67 L240,37 C240,31.4771525 244.477153,27 250,27 Z M361.5,56.876335 C366.282926,59.6377587 367.921678,65.7536628 365.160254,70.536589 L350.160254,96.5173511 C347.39883,101.300277 341.282926,102.939029 336.5,100.177605 C331.717074,97.4161814 330.078322,91.3002773 332.839746,86.5173511 L347.839746,60.536589 C350.60117,55.7536628 356.717074,54.1149112 361.5,56.876335 Z M443.123665,138.5 C445.885089,143.282926 444.246337,149.39883 439.463411,152.160254 L413.482649,167.160254 C408.699723,169.921678 402.583819,168.282926 399.822395,163.5 C397.060971,158.717074 398.699723,152.60117 403.482649,149.839746 L429.463411,134.839746 C434.246337,132.078322 440.362241,133.717074 443.123665,138.5 Z M473,250 C473,255.522847 468.522847,260 463,260 L433,260 C427.477153,260 423,255.522847 423,250 C423,244.477153 427.477153,240 433,240 L463,240 C468.522847,240 473,244.477153 473,250 Z M443.123665,361.5 C440.362241,366.282926 434.246337,367.921678 429.463411,365.160254 L403.482649,350.160254 C398.699723,347.39883 397.060971,341.282926 399.822395,336.5 C402.583819,331.717074 408.699723,330.078322 413.482649,332.839746 L439.463411,347.839746 C444.246337,350.60117 445.885089,356.717074 443.123665,361.5 Z M361.5,443.123665 C356.717074,445.885089 350.60117,444.246337 347.839746,439.463411 L332.839746,413.482649 C330.078322,408.699723 331.717074,402.583819 336.5,399.822395 C341.282926,397.060971 347.39883,398.699723 350.160254,403.482649 L365.160254,429.463411 C367.921678,434.246337 366.282926,440.362241 361.5,443.123665 Z M250,473 C244.477153,473 240,468.522847 240,463 L240,433 C240,427.477153 244.477153,423 250,423 C255.522847,423 260,427.477153 260,433 L260,463 C260,468.522847 255.522847,473 250,473 Z M138.5,443.123665 C133.717074,440.362241 132.078322,434.246337 134.839746,429.463411 L149.839746,403.482649 C152.60117,398.699723 158.717074,397.060971 163.5,399.822395 C168.282926,402.583819 169.921678,408.699723 167.160254,413.482649 L152.160254,439.463411 C149.39883,444.246337 143.282926,445.885089 138.5,443.123665 Z M56.876335,361.5 C54.1149112,356.717074 55.7536628,350.60117 60.536589,347.839746 L86.5173511,332.839746 C91.3002773,330.078322 97.4161814,331.717074 100.177605,336.5 C102.939029,341.282926 101.300277,347.39883 96.5173511,350.160254 L70.536589,365.160254 C65.7536628,367.921678 59.6377587,366.282926 56.876335,361.5 Z M27,250 C27,244.477153 31.4771525,240 37,240 L67,240 C72.5228475,240 77,244.477153 77,250 C77,255.522847 72.5228475,260 67,260 L37,260 C31.4771525,260 27,255.522847 27,250 Z M56.876335,138.5 C59.6377587,133.717074 65.7536628,132.078322 70.536589,134.839746 L96.5173511,149.839746 C101.300277,152.60117 102.939029,158.717074 100.177605,163.5 C97.4161814,168.282926 91.3002773,169.921678 86.5173511,167.160254 L60.536589,152.160254 C55.7536628,149.39883 54.1149112,143.282926 56.876335,138.5 Z M138.5,56.876335 C143.282926,54.1149112 149.39883,55.7536628 152.160254,60.536589 L167.160254,86.5173511 C169.921678,91.3002773 168.282926,97.4161814 163.5,100.177605 C158.717074,102.939029 152.60117,101.300277 149.839746,96.5173511 L134.839746,70.536589 C132.078322,65.7536628 133.717074,59.6377587 138.5,56.876335 Z" id="Combined-Shape" fill="#0163D3"></path>
        <path d="M250,35 C252.209139,35 254,33.209139 254,31 C254,28.790861 252.209139,27 250,27 C247.790861,27 246,28.790861 246,31 C246,33.209139 247.790861,35 250,35 Z M272.47362,36.1777925 C274.670657,36.4087104 276.638903,34.8148559 276.869821,32.6178188 C277.100739,30.4207817 275.506884,28.4525352 273.309847,28.2216173 C271.11281,27.9906994 269.144564,29.584554 268.913646,31.7815911 C268.682728,33.9786282 270.276582,35.9468746 272.47362,36.1777925 Z M294.701014,39.6982658 C296.861878,40.1575717 298.985945,38.7781862 299.445251,36.6173222 C299.904557,34.4564582 298.525171,32.3323909 296.364307,31.873085 C294.203443,31.4137792 292.079376,32.7931647 291.62007,34.9540287 C291.160764,37.1148927 292.54015,39.23896 294.701014,39.6982658 Z M316.438654,45.522849 C318.53967,46.2055105 320.796286,45.0557069 321.478948,42.9546909 C322.161609,40.8536749 321.011806,38.5970584 318.91079,37.9143969 C316.809774,37.2317354 314.553157,38.3815389 313.870496,40.482555 C313.187834,42.583571 314.337638,44.8401875 316.438654,45.522849 Z M337.448378,53.5877266 C339.466527,54.4862644 341.830969,53.5786402 342.729507,51.5604913 C343.628044,49.5423425 342.72042,47.1779007 340.702271,46.2793629 C338.684123,45.3808252 336.319681,46.2884493 335.421143,48.3065982 C334.522605,50.3247471 335.430229,52.6891888 337.448378,53.5877266 Z M357.5,63.8045382 C359.41317,64.9091077 361.859532,64.2536071 362.964102,62.3404366 C364.068671,60.4272661 363.41317,57.9809045 361.5,56.876335 C359.58683,55.7717655 357.140468,56.4272661 356.035898,58.3404366 C354.931329,60.2536071 355.58683,62.6999687 357.5,63.8045382 Z M376.373829,76.0613462 C378.16106,77.3598455 380.662539,76.9636502 381.961038,75.1764192 C383.259538,73.3891882 382.863342,70.8877096 381.076111,69.5892103 C379.28888,68.2907109 376.787402,68.6869062 375.488902,70.4741372 C374.190403,72.2613682 374.586598,74.7628469 376.373829,76.0613462 Z M393.86308,90.2238625 C395.504791,91.702065 398.03398,91.5695159 399.512182,89.9278056 C400.990385,88.2860954 400.857835,85.7569064 399.216125,84.2787039 C397.574415,82.8005014 395.045226,82.9330506 393.567023,84.5747608 C392.088821,86.216471 392.22137,88.74566 393.86308,90.2238625 Z M409.776137,106.13692 C411.25434,107.77863 413.783529,107.911179 415.425239,106.432977 C417.066949,104.954774 417.199499,102.425585 415.721296,100.783875 C414.243094,99.1421646 411.713905,99.0096154 410.072194,100.487818 C408.430484,101.96602 408.297935,104.495209 409.776137,106.13692 Z M423.938654,123.626171 C425.237153,125.413402 427.738632,125.809597 429.525863,124.511098 C431.313094,123.212598 431.709289,120.71112 430.41079,118.923889 C429.11229,117.136658 426.610812,116.740462 424.823581,118.038962 C423.03635,119.337461 422.640154,121.83894 423.938654,123.626171 Z M436.195462,142.5 C437.300031,144.41317 439.746393,145.068671 441.659563,143.964102 C443.572734,142.859532 444.228235,140.41317 443.123665,138.5 C442.019096,136.58683 439.572734,135.931329 437.659563,137.035898 C435.746393,138.140468 435.090892,140.58683 436.195462,142.5 Z M446.412273,162.551622 C447.310811,164.569771 449.675253,165.477395 451.693402,164.578857 C453.711551,163.680319 454.619175,161.315877 453.720637,159.297729 C452.822099,157.27958 450.457658,156.371956 448.439509,157.270493 C446.42136,158.169031 445.513736,160.533473 446.412273,162.551622 Z M454.477151,183.561346 C455.159812,185.662362 457.416429,186.812166 459.517445,186.129504 C461.618461,185.446843 462.768265,183.190226 462.085603,181.08921 C461.402942,178.988194 459.146325,177.838391 457.045309,178.521052 C454.944293,179.203714 453.79449,181.46033 454.477151,183.561346 Z M460.301734,205.298986 C460.76104,207.45985 462.885107,208.839236 465.045971,208.37993 C467.206835,207.920624 468.586221,205.796557 468.126915,203.635693 C467.667609,201.474829 465.543542,200.095443 463.382678,200.554749 C461.221814,201.014055 459.842428,203.138122 460.301734,205.298986 Z M463.822208,227.52638 C464.053125,229.723418 466.021372,231.317272 468.218409,231.086354 C470.415446,230.855436 472.009301,228.88719 471.778383,226.690153 C471.547465,224.493116 469.579218,222.899261 467.382181,223.130179 C465.185144,223.361097 463.59129,225.329343 463.822208,227.52638 Z M465,250 C465,252.209139 466.790861,254 469,254 C471.209139,254 473,252.209139 473,250 C473,247.790861 471.209139,246 469,246 C466.790861,246 465,247.790861 465,250 Z M463.822208,272.47362 C463.59129,274.670657 465.185144,276.638903 467.382181,276.869821 C469.579218,277.100739 471.547465,275.506884 471.778383,273.309847 C472.009301,271.11281 470.415446,269.144564 468.218409,268.913646 C466.021372,268.682728 464.053125,270.276582 463.822208,272.47362 Z M460.301734,294.701014 C459.842428,296.861878 461.221814,298.985945 463.382678,299.445251 C465.543542,299.904557 467.667609,298.525171 468.126915,296.364307 C468.586221,294.203443 467.206835,292.079376 465.045971,291.62007 C462.885107,291.160764 460.76104,292.54015 460.301734,294.701014 Z M454.477151,316.438654 C453.79449,318.53967 454.944293,320.796286 457.045309,321.478948 C459.146325,322.161609 461.402942,321.011806 462.085603,318.91079 C462.768265,316.809774 461.618461,314.553157 459.517445,313.870496 C457.416429,313.187834 455.159812,314.337638 454.477151,316.438654 Z M446.412273,337.448378 C445.513736,339.466527 446.42136,341.830969 448.439509,342.729507 C450.457658,343.628044 452.822099,342.72042 453.720637,340.702271 C454.619175,338.684123 453.711551,336.319681 451.693402,335.421143 C449.675253,334.522605 447.310811,335.430229 446.412273,337.448378 Z M436.195462,357.5 C435.090892,359.41317 435.746393,361.859532 437.659563,362.964102 C439.572734,364.068671 442.019096,363.41317 443.123665,361.5 C444.228235,359.58683 443.572734,357.140468 441.659563,356.035898 C439.746393,354.931329 437.300031,355.58683 436.195462,357.5 Z M423.938654,376.373829 C422.640154,378.16106 423.03635,380.662539 424.823581,381.961038 C426.610812,383.259538 429.11229,382.863342 430.41079,381.076111 C431.709289,379.28888 431.313094,376.787402 429.525863,375.488902 C427.738632,374.190403 425.237153,374.586598 423.938654,376.373829 Z M409.776137,393.86308 C408.297935,395.504791 408.430484,398.03398 410.072194,399.512182 C411.713905,400.990385 414.243094,400.857835 415.721296,399.216125 C417.199499,397.574415 417.066949,395.045226 415.425239,393.567023 C413.783529,392.088821 411.25434,392.22137 409.776137,393.86308 Z M393.86308,409.776137 C392.22137,411.25434 392.088821,413.783529 393.567023,415.425239 C395.045226,417.066949 397.574415,417.199499 399.216125,415.721296 C400.857835,414.243094 400.990385,411.713905 399.512182,410.072194 C398.03398,408.430484 395.504791,408.297935 393.86308,409.776137 Z M376.373829,423.938654 C374.586598,425.237153 374.190403,427.738632 375.488902,429.525863 C376.787402,431.313094 379.28888,431.709289 381.076111,430.41079 C382.863342,429.11229 383.259538,426.610812 381.961038,424.823581 C380.662539,423.03635 378.16106,422.640154 376.373829,423.938654 Z M357.5,436.195462 C355.58683,437.300031 354.931329,439.746393 356.035898,441.659563 C357.140468,443.572734 359.58683,444.228235 361.5,443.123665 C363.41317,442.019096 364.068671,439.572734 362.964102,437.659563 C361.859532,435.746393 359.41317,435.090892 357.5,436.195462 Z M337.448378,446.412273 C335.430229,447.310811 334.522605,449.675253 335.421143,451.693402 C336.319681,453.711551 338.684123,454.619175 340.702271,453.720637 C342.72042,452.822099 343.628044,450.457658 342.729507,448.439509 C341.830969,446.42136 339.466527,445.513736 337.448378,446.412273 Z M316.438654,454.477151 C314.337638,455.159812 313.187834,457.416429 313.870496,459.517445 C314.553157,461.618461 316.809774,462.768265 318.91079,462.085603 C321.011806,461.402942 322.161609,459.146325 321.478948,457.045309 C320.796286,454.944293 318.53967,453.79449 316.438654,454.477151 Z M294.701014,460.301734 C292.54015,460.76104 291.160764,462.885107 291.62007,465.045971 C292.079376,467.206835 294.203443,468.586221 296.364307,468.126915 C298.525171,467.667609 299.904557,465.543542 299.445251,463.382678 C298.985945,461.221814 296.861878,459.842428 294.701014,460.301734 Z M272.47362,463.822208 C270.276582,464.053125 268.682728,466.021372 268.913646,468.218409 C269.144564,470.415446 271.11281,472.009301 273.309847,471.778383 C275.506884,471.547465 277.100739,469.579218 276.869821,467.382181 C276.638903,465.185144 274.670657,463.59129 272.47362,463.822208 Z M250,465 C247.790861,465 246,466.790861 246,469 C246,471.209139 247.790861,473 250,473 C252.209139,473 254,471.209139 254,469 C254,466.790861 252.209139,465 250,465 Z M227.52638,463.822208 C225.329343,463.59129 223.361097,465.185144 223.130179,467.382181 C222.899261,469.579218 224.493116,471.547465 226.690153,471.778383 C228.88719,472.009301 230.855436,470.415446 231.086354,468.218409 C231.317272,466.021372 229.723418,464.053125 227.52638,463.822208 Z M205.298986,460.301734 C203.138122,459.842428 201.014055,461.221814 200.554749,463.382678 C200.095443,465.543542 201.474829,467.667609 203.635693,468.126915 C205.796557,468.586221 207.920624,467.206835 208.37993,465.045971 C208.839236,462.885107 207.45985,460.76104 205.298986,460.301734 Z M183.561346,454.477151 C181.46033,453.79449 179.203714,454.944293 178.521052,457.045309 C177.838391,459.146325 178.988194,461.402942 181.08921,462.085603 C183.190226,462.768265 185.446843,461.618461 186.129504,459.517445 C186.812166,457.416429 185.662362,455.159812 183.561346,454.477151 Z M162.551622,446.412273 C160.533473,445.513736 158.169031,446.42136 157.270493,448.439509 C156.371956,450.457658 157.27958,452.822099 159.297729,453.720637 C161.315877,454.619175 163.680319,453.711551 164.578857,451.693402 C165.477395,449.675253 164.569771,447.310811 162.551622,446.412273 Z M142.5,436.195462 C140.58683,435.090892 138.140468,435.746393 137.035898,437.659563 C135.931329,439.572734 136.58683,442.019096 138.5,443.123665 C140.41317,444.228235 142.859532,443.572734 143.964102,441.659563 C145.068671,439.746393 144.41317,437.300031 142.5,436.195462 Z M123.626171,423.938654 C121.83894,422.640154 119.337461,423.03635 118.038962,424.823581 C116.740462,426.610812 117.136658,429.11229 118.923889,430.41079 C120.71112,431.709289 123.212598,431.313094 124.511098,429.525863 C125.809597,427.738632 125.413402,425.237153 123.626171,423.938654 Z M106.13692,409.776137 C104.495209,408.297935 101.96602,408.430484 100.487818,410.072194 C99.0096154,411.713905 99.1421646,414.243094 100.783875,415.721296 C102.425585,417.199499 104.954774,417.066949 106.432977,415.425239 C107.911179,413.783529 107.77863,411.25434 106.13692,409.776137 Z M90.2238625,393.86308 C88.74566,392.22137 86.216471,392.088821 84.5747608,393.567023 C82.9330506,395.045226 82.8005014,397.574415 84.2787039,399.216125 C85.7569064,400.857835 88.2860954,400.990385 89.9278056,399.512182 C91.5695159,398.03398 91.702065,395.504791 90.2238625,393.86308 Z M76.0613462,376.373829 C74.7628469,374.586598 72.2613682,374.190403 70.4741372,375.488902 C68.6869062,376.787402 68.2907109,379.28888 69.5892103,381.076111 C70.8877096,382.863342 73.3891882,383.259538 75.1764192,381.961038 C76.9636502,380.662539 77.3598455,378.16106 76.0613462,376.373829 Z M63.8045382,357.5 C62.6999687,355.58683 60.2536071,354.931329 58.3404366,356.035898 C56.4272661,357.140468 55.7717655,359.58683 56.876335,361.5 C57.9809045,363.41317 60.4272661,364.068671 62.3404366,362.964102 C64.2536071,361.859532 64.9091077,359.41317 63.8045382,357.5 Z M53.5877266,337.448378 C52.6891888,335.430229 50.3247471,334.522605 48.3065982,335.421143 C46.2884493,336.319681 45.3808252,338.684123 46.2793629,340.702271 C47.1779007,342.72042 49.5423425,343.628044 51.5604913,342.729507 C53.5786402,341.830969 54.4862644,339.466527 53.5877266,337.448378 Z M45.522849,316.438654 C44.8401875,314.337638 42.583571,313.187834 40.482555,313.870496 C38.3815389,314.553157 37.2317354,316.809774 37.9143969,318.91079 C38.5970584,321.011806 40.8536749,322.161609 42.9546909,321.478948 C45.0557069,320.796286 46.2055105,318.53967 45.522849,316.438654 Z M39.6982658,294.701014 C39.23896,292.54015 37.1148927,291.160764 34.9540287,291.62007 C32.7931647,292.079376 31.4137792,294.203443 31.873085,296.364307 C32.3323909,298.525171 34.4564582,299.904557 36.6173222,299.445251 C38.7781862,298.985945 40.1575717,296.861878 39.6982658,294.701014 Z M36.1777925,272.47362 C35.9468746,270.276582 33.9786282,268.682728 31.7815911,268.913646 C29.584554,269.144564 27.9906994,271.11281 28.2216173,273.309847 C28.4525352,275.506884 30.4207817,277.100739 32.6178188,276.869821 C34.8148559,276.638903 36.4087104,274.670657 36.1777925,272.47362 Z M35,250 C35,247.790861 33.209139,246 31,246 C28.790861,246 27,247.790861 27,250 C27,252.209139 28.790861,254 31,254 C33.209139,254 35,252.209139 35,250 Z M36.1777925,227.52638 C36.4087104,225.329343 34.8148559,223.361097 32.6178188,223.130179 C30.4207817,222.899261 28.4525352,224.493116 28.2216173,226.690153 C27.9906994,228.88719 29.584554,230.855436 31.7815911,231.086354 C33.9786282,231.317272 35.9468746,229.723418 36.1777925,227.52638 Z M39.6982658,205.298986 C40.1575717,203.138122 38.7781862,201.014055 36.6173222,200.554749 C34.4564582,200.095443 32.3323909,201.474829 31.873085,203.635693 C31.4137792,205.796557 32.7931647,207.920624 34.9540287,208.37993 C37.1148927,208.839236 39.23896,207.45985 39.6982658,205.298986 Z M45.522849,183.561346 C46.2055105,181.46033 45.0557069,179.203714 42.9546909,178.521052 C40.8536749,177.838391 38.5970584,178.988194 37.9143969,181.08921 C37.2317354,183.190226 38.3815389,185.446843 40.482555,186.129504 C42.583571,186.812166 44.8401875,185.662362 45.522849,183.561346 Z M53.5877266,162.551622 C54.4862644,160.533473 53.5786402,158.169031 51.5604913,157.270493 C49.5423425,156.371956 47.1779007,157.27958 46.2793629,159.297729 C45.3808252,161.315877 46.2884493,163.680319 48.3065982,164.578857 C50.3247471,165.477395 52.6891888,164.569771 53.5877266,162.551622 Z M63.8045382,142.5 C64.9091077,140.58683 64.2536071,138.140468 62.3404366,137.035898 C60.4272661,135.931329 57.9809045,136.58683 56.876335,138.5 C55.7717655,140.41317 56.4272661,142.859532 58.3404366,143.964102 C60.2536071,145.068671 62.6999687,144.41317 63.8045382,142.5 Z M76.0613462,123.626171 C77.3598455,121.83894 76.9636502,119.337461 75.1764192,118.038962 C73.3891882,116.740462 70.8877096,117.136658 69.5892103,118.923889 C68.2907109,120.71112 68.6869062,123.212598 70.4741372,124.511098 C72.2613682,125.809597 74.7628469,125.413402 76.0613462,123.626171 Z M90.2238625,106.13692 C91.702065,104.495209 91.5695159,101.96602 89.9278056,100.487818 C88.2860954,99.0096154 85.7569064,99.1421646 84.2787039,100.783875 C82.8005014,102.425585 82.9330506,104.954774 84.5747608,106.432977 C86.216471,107.911179 88.74566,107.77863 90.2238625,106.13692 Z M106.13692,90.2238625 C107.77863,88.74566 107.911179,86.216471 106.432977,84.5747608 C104.954774,82.9330506 102.425585,82.8005014 100.783875,84.2787039 C99.1421646,85.7569064 99.0096154,88.2860954 100.487818,89.9278056 C101.96602,91.5695159 104.495209,91.702065 106.13692,90.2238625 Z M123.626171,76.0613462 C125.413402,74.7628469 125.809597,72.2613682 124.511098,70.4741372 C123.212598,68.6869062 120.71112,68.2907109 118.923889,69.5892103 C117.136658,70.8877096 116.740462,73.3891882 118.038962,75.1764192 C119.337461,76.9636502 121.83894,77.3598455 123.626171,76.0613462 Z M142.5,63.8045382 C144.41317,62.6999687 145.068671,60.2536071 143.964102,58.3404366 C142.859532,56.4272661 140.41317,55.7717655 138.5,56.876335 C136.58683,57.9809045 135.931329,60.4272661 137.035898,62.3404366 C138.140468,64.2536071 140.58683,64.9091077 142.5,63.8045382 Z M162.551622,53.5877266 C164.569771,52.6891888 165.477395,50.3247471 164.578857,48.3065982 C163.680319,46.2884493 161.315877,45.3808252 159.297729,46.2793629 C157.27958,47.1779007 156.371956,49.5423425 157.270493,51.5604913 C158.169031,53.5786402 160.533473,54.4862644 162.551622,53.5877266 Z M183.561346,45.522849 C185.662362,44.8401875 186.812166,42.583571 186.129504,40.482555 C185.446843,38.3815389 183.190226,37.2317354 181.08921,37.9143969 C178.988194,38.5970584 177.838391,40.8536749 178.521052,42.9546909 C179.203714,45.0557069 181.46033,46.2055105 183.561346,45.522849 Z M205.298986,39.6982658 C207.45985,39.23896 208.839236,37.1148927 208.37993,34.9540287 C207.920624,32.7931647 205.796557,31.4137792 203.635693,31.873085 C201.474829,32.3323909 200.095443,34.4564582 200.554749,36.6173222 C201.014055,38.7781862 203.138122,40.1575717 205.298986,39.6982658 Z M227.52638,36.1777925 C229.723418,35.9468746 231.317272,33.9786282 231.086354,31.7815911 C230.855436,29.584554 228.88719,27.9906994 226.690153,28.2216173 C224.493116,28.4525352 222.899261,30.4207817 223.130179,32.6178188 C223.361097,34.8148559 225.329343,36.4087104 227.52638,36.1777925 Z" id="Combined-Shape" fill="#0163D3"></path>
    </g>
</svg>