<?xml version="1.0" encoding="UTF-8"?>
<svg width="50px" height="500px" viewBox="0 0 50 500" version="1.1" xmlns="http://www.w3.org/2000/svg" xmlns:xlink="http://www.w3.org/1999/xlink">
    <title>hour-hand-big-ns-light</title>
    <g id="Page-1" stroke="none" stroke-width="1" fill="none" fill-rule="evenodd">
        <g id="clock-face-big-dark" transform="translate(-225, 0)" fill="#000000" stroke="#343434" stroke-width="2">
            <path d="M250,127 C253.589851,127 256.839851,128.455075 259.192388,130.807612 C261.544925,133.160149 263,136.410149 263,140 L263,291 C263,291.552285 262.776142,292.052285 262.414214,292.414214 C262.052285,292.776142 261.552285,293 261,293 L239,293 C238.447715,293 237.947715,292.776142 237.585786,292.414214 C237.223858,292.052285 237,291.552285 237,291 L237,140 C237,136.410149 238.455075,133.160149 240.807612,130.807612 C243.160149,128.455075 246.410149,127 250,127 Z" id="Rectangle"></path>
        </g>
    </g>
</svg>