<?xml version="1.0" encoding="UTF-8"?>
<svg width="80px" height="500px" viewBox="0 0 80 500" version="1.1" xmlns="http://www.w3.org/2000/svg" xmlns:xlink="http://www.w3.org/1999/xlink">
    <title>sec-hand-big-ns-light</title>
    <defs>
        <path d="M30,4.4408921e-16 C31.6620838,-4.4408921e-16 33.0144892,1.33783769 33.0324891,2.99982407 L33.9019653,83.2514453 C48.6269897,85.1639904 60,97.7538408 60,113 C60,128.023187 48.9572131,140.467193 34.5458409,142.657817 L35.9781048,274.978341 C35.9900669,276.082845 35.1043862,276.987921 33.9998814,276.999883 L26.0217779,277 C24.9172084,277 24.0217779,276.104569 24.0217779,275 L24.0218952,274.978341 L25.4541591,142.657817 C11.0427869,140.467193 0,128.023187 0,113 C0,97.7538408 11.3730103,85.1639904 26.0980347,83.2514453 L26.9675109,2.99982407 C26.9855108,1.33783769 28.3379162,8.8817842e-16 30,4.4408921e-16 Z M30,99 C22.2680135,99 16,105.268014 16,113 C16,120.731986 22.2680135,127 30,127 C37.7319865,127 44,120.731986 44,113 C44,105.268014 37.7319865,99 30,99 Z" id="path-1"></path>
        <linearGradient x1="0%" y1="50%" x2="100%" y2="50%" id="linearGradient-3">
            <stop stop-color="#FF3A1C" offset="0%"></stop>
            <stop stop-color="#EA391E" offset="100%"></stop>
        </linearGradient>
    </defs>
    <g id="Page-1" stroke="none" stroke-width="1" fill="none" fill-rule="evenodd">
        <g id="clock-face-big-dark" transform="translate(-210, 0)">
            <g id="Group" transform="translate(220, 27)">
                <mask id="mask-2" fill="white">
                    <use xlink:href="#path-1"></use>
                </mask>
                <use id="Combined-Shape" fill="#FF3A1C" xlink:href="#path-1"></use>
                <rect id="Rectangle" fill="url(#linearGradient-3)" mask="url(#mask-2)" x="0" y="0" width="30" height="277"></rect>
            </g>
        </g>
    </g>
</svg>