<?xml version="1.0" encoding="UTF-8"?>
<svg width="600px" height="600px" viewBox="0 0 600 600" version="1.1" xmlns="http://www.w3.org/2000/svg" xmlns:xlink="http://www.w3.org/1999/xlink">
    <title>icon</title>
    <g id="icon" stroke="none" stroke-width="1" fill="none" fill-rule="evenodd">
        <path d="M540,330 C573.137085,330 600,356.862915 600,390 L600,540 C600,573.137085 573.137085,600 540,600 L390,600 C356.862915,600 330,573.137085 330,540 L330,390 C330,356.862915 356.862915,330 390,330 L540,330 Z M135,330 C209.558441,330 270,390.441559 270,465 C270,539.558441 209.558441,600 135,600 C60.4415588,600 0,539.558441 0,465 C0,390.441559 60.4415588,330 135,330 Z M465,525 C459.477153,525 455,529.477153 455,535 L455,555 C455,560.522847 459.477153,565 465,565 C470.522847,565 475,560.522847 475,555 L475,535 C475,529.477153 470.522847,525 465,525 Z M408.431458,507.426407 L394.289322,521.568542 C390.384079,525.473785 390.384079,531.805435 394.289322,535.710678 C398.194565,539.615921 404.526215,539.615921 408.431458,535.710678 L422.573593,521.568542 C426.478836,517.6633 426.478836,511.33165 422.573593,507.426407 C418.66835,503.521164 412.3367,503.521164 408.431458,507.426407 Z M507.426407,507.426407 C503.521164,511.33165 503.521164,517.6633 507.426407,521.568542 L521.568542,535.710678 C525.473785,539.615921 531.805435,539.615921 535.710678,535.710678 C539.615921,531.805435 539.615921,525.473785 535.710678,521.568542 L521.568542,507.426407 C517.6633,503.521164 511.33165,503.521164 507.426407,507.426407 Z M465,420 C440.147186,420 420,440.147186 420,465 C420,489.852814 440.147186,510 465,510 C489.852814,510 510,489.852814 510,465 C510,440.147186 489.852814,420 465,420 Z M135,355 C130.529127,355 126.854405,358.527159 126.671269,362.994279 L125.731845,386.144484 C124.035474,428.439493 123.129139,454.143756 123.01284,463.257273 L123.000378,464.739325 C122.992926,465.107768 123.00226,465.475118 123.028263,465.84066 C123.155136,467.66413 123.688806,469.375722 124.539568,470.884747 C125.344115,472.317571 126.451285,473.599987 127.832894,474.626 L127.933722,474.699874 C128.051472,474.785629 128.171371,474.869479 128.293211,474.951414 C128.480612,475.07854 128.671961,475.200228 128.866941,475.316454 L129.926617,475.920401 C133.583922,477.98075 139.612987,481.124956 148.013812,485.353018 L152.13533,487.419261 L156.54953,489.617036 C163.935681,493.283285 172.648021,497.555581 182.68655,502.433922 C186.743535,504.405464 191.634395,502.906351 193.889727,499 C196.14506,495.093649 194.997895,490.108483 191.262003,487.580802 L180.298134,480.184564 C165.164469,470.009193 154.026811,462.67787 146.885158,458.190597 L146.704345,451.726487 C146.207144,435.335994 145.081881,405.758027 143.328731,362.994279 C143.145595,358.527159 139.470873,355 135,355 Z M555,455 L535,455 C529.477153,455 525,459.477153 525,465 C525,470.522847 529.477153,475 535,475 L555,475 C560.522847,475 565,470.522847 565,465 C565,459.477153 560.522847,455 555,455 Z M395,455 L375,455 C369.477153,455 365,459.477153 365,465 C365,470.522847 369.477153,475 375,475 L395,475 C400.522847,475 405,470.522847 405,465 C405,459.477153 400.522847,455 395,455 Z M521.568542,394.289322 L507.426407,408.431458 C503.521164,412.3367 503.521164,418.66835 507.426407,422.573593 C511.33165,426.478836 517.6633,426.478836 521.568542,422.573593 L535.710678,408.431458 C539.615921,404.526215 539.615921,398.194565 535.710678,394.289322 C531.805435,390.384079 525.473785,390.384079 521.568542,394.289322 Z M394.289322,394.289322 C390.384079,398.194565 390.384079,404.526215 394.289322,408.431458 L408.431458,422.573593 C412.3367,426.478836 418.66835,426.478836 422.573593,422.573593 C426.478836,418.66835 426.478836,412.3367 422.573593,408.431458 L408.431458,394.289322 C404.526215,390.384079 398.194565,390.384079 394.289322,394.289322 Z M465,365 C459.477153,365 455,369.477153 455,375 L455,395 C455,400.522847 459.477153,405 465,405 C470.522847,405 475,400.522847 475,395 L475,375 C475,369.477153 470.522847,365 465,365 Z M540,0 C573.137085,0 600,26.862915 600,60 L600,210 C600,243.137085 573.137085,270 540,270 L60,270 C26.862915,270 0,243.137085 0,210 L0,60 C0,26.862915 26.862915,0 60,0 L540,0 Z M300,60 C280.020571,60 262.135638,64.8412947 244.967507,74.2304395 C240.389402,76.7341774 235.950322,79.486343 231.465391,82.5994303 C236.949317,86.6160539 241.661456,91.6241124 245.337543,97.3592854 C248.419651,95.3143062 251.469753,93.4699526 254.564009,91.7777231 C268.869823,83.9539612 283.476729,80 300,80 C316.523271,80 331.130177,83.9539612 345.435991,91.7777231 C357.148501,98.1832226 368.228376,106.768367 382.806121,120.163637 L385.291061,122.46444 L389.428372,126.355969 C389.800329,126.707128 390.181682,127.067373 390.570355,127.434715 L406.260589,142.295372 L408.076006,143.99155 C430.32237,164.704301 447.32842,177.813289 467.955656,188.556641 C494.991692,202.637909 524.888791,210 560,210 C565.522847,210 570,205.522847 570,200 C570,194.477153 565.522847,190 560,190 C528.114781,190 501.385711,183.418029 477.194344,170.818359 C458.468963,161.065557 442.717271,148.920896 421.658659,129.311073 L417.923489,125.800027 L401.551175,110.297719 L398.669149,107.592899 C398.382556,107.325487 398.121837,107.082983 397.890326,106.868582 L396.260264,105.365049 C380.623324,91.0014988 368.422558,81.553384 355.032493,74.2304395 C337.864362,64.8412947 319.979429,60 300,60 Z M150.574329,153.098342 L150.421703,153.214616 C141.252978,160.171244 132.421392,165.810163 122.805656,170.818359 C98.6142894,183.418029 71.8852192,190 40,190 C34.4771525,190 30,194.477153 30,200 C30,205.522847 34.4771525,210 40,210 C75.1112093,210 105.008308,202.637909 132.044344,188.556641 C142.982112,182.859887 152.901696,176.497977 163.124103,168.689611 C158.049478,164.318686 153.781636,159.037013 150.574329,153.098342 Z M199,92 C179.670034,92 164,107.670034 164,127 C164,146.329966 179.670034,162 199,162 C218.329966,162 234,146.329966 234,127 C234,107.670034 218.329966,92 199,92 Z" id="Shape" fill="#000000"></path>
    </g>
</svg>